REM MD5 a38c2844b39bd8529ee72ba4539e13c6
FILE "Toys R Us - Interactive CD Sampler Disc (USA).bin" BINARY
  TRACK 01 MODE2/2352
    INDEX 01 00:00:00
  TRACK 02 AUDIO
    INDEX 00 27:21:02
    INDEX 01 27:23:02
  TRACK 03 AUDIO
    INDEX 00 31:41:18
    INDEX 01 31:43:18
REM LEADOUT 31:49:14
